<?xml version="1.0" encoding="iso-8859-1"?>
<!-- Generator: Adobe Illustrator 19.0.0, SVG Export Plug-In . SVG Version: 6.00 Build 0)  -->
<svg xmlns="http://www.w3.org/2000/svg" xmlns:xlink="http://www.w3.org/1999/xlink" version="1.1" id="Capa_1" x="0px" y="0px" viewBox="0 0 326 326" style="enable-background:new 0 0 326 326;" xml:space="preserve" width="512px" height="512px">
<g>
	<g>
		<g>
			<path d="M71.2,226.6c-0.4-0.8-0.8-1.2-1.6-1.6c-2-1.2-5.2-0.8-6.4,1.6c-1.6,2.8-3.6,5.6-6,8.8c-10.4,15.2-25.6,37.6-25.6,50.8     c0,9.6,4,18.4,10.4,24.8c6.4,6.4,15.2,10.4,24.8,10.4c9.6,0,18.4-4,24.8-10c0,0,0,0,0.4-0.4c6.4-6.4,10.4-15.2,10.4-24.8     c0-13.2-15.2-35.6-25.6-50.8C74.8,232.2,72.8,229.4,71.2,226.6z" fill="#d5d4d0"/>
			<path d="M263.2,226.6c-0.4-0.4-0.8-1.2-1.6-1.6c-2-1.2-5.2-0.8-6.4,1.6c-1.6,2.8-3.6,5.6-6,8.8c-10.4,15.2-25.6,37.6-25.6,50.8     c0.4,9.6,4.4,18.4,10.8,24.8c6.4,6.4,15.2,10.4,24.8,10.4c9.6,0,18.4-4,24.8-10.4c6.4-6.4,10.4-15.2,10.4-24.8     c0-13.2-15.2-35.6-25.6-50.8C266.8,232.2,264.8,229.4,263.2,226.6z" fill="#d5d4d0"/>
			<path d="M167.2,226.6c-0.4-0.4-0.8-1.2-1.6-1.6c-2-1.2-5.2-0.8-6.4,1.6c-1.6,2.8-3.6,5.6-6,8.8c-10.4,15.2-25.6,37.6-25.6,50.8     c0,9.6,4,18.4,10.4,24.8c6.4,6.4,15.2,10.4,24.8,10.4c10,0,18.8-4,25.2-10.4c6.4-6.4,10.4-15.2,10.4-24.8     c0-13.2-15.2-35.6-25.6-50.8C170.8,232.2,168.8,229.4,167.2,226.6z" fill="#d5d4d0"/>
			<path d="M306.8,87c-11.6-11.6-28-18.8-46-18.8c-9.2,0-18.4,2-26.8,5.6c-8.4,3.6-16,9.2-22,16c-4.4,4.8-11.6,5.2-16.4,1.2     c-4.8-4.4-5.2-11.6-1.2-16.4c8.4-9.6,18.4-16.8,29.6-22c2-0.8,3.6-1.6,5.6-2.4c-6.8-12-16-22.4-26.8-30     c-14.4-10-31.6-15.6-50-15.6c-21.6,0-42,8-57.2,21.2C80,39,69.2,57.8,66,79.4c-0.4,3.2-2.4,6.4-5.2,8c-2,1.2-4,2-6.4,2     c-14.8,0-28.4,6-38.4,16S0,128.6,0,143.8c0,14.8,6,28.4,16,38.4c10.4,9.6,23.6,15.6,38.8,15.6h206.4c18,0,34-7.2,46-18.8     c11.6-11.6,18.8-28,18.8-46S318.8,99,306.8,87z" fill="#d5d4d0"/>
		</g>
	</g>
</g>
<g>
</g>
<g>
</g>
<g>
</g>
<g>
</g>
<g>
</g>
<g>
</g>
<g>
</g>
<g>
</g>
<g>
</g>
<g>
</g>
<g>
</g>
<g>
</g>
<g>
</g>
<g>
</g>
<g>
</g>
</svg>
