<?xml version="1.0" encoding="iso-8859-1"?>
<!-- Generator: Adobe Illustrator 19.0.0, SVG Export Plug-In . SVG Version: 6.00 Build 0)  -->
<svg xmlns="http://www.w3.org/2000/svg" xmlns:xlink="http://www.w3.org/1999/xlink" version="1.1" id="Capa_1" x="0px" y="0px" viewBox="0 0 314.8 314.8" style="enable-background:new 0 0 314.8 314.8;" xml:space="preserve" width="512px" height="512px">
<g>
	<g>
		<path d="M267.2,55.2C238.4,26.8,200,10,157.2,10C113.6,10,74.4,27.6,46,56C17.6,84.4,0,123.6,0,166.8v0.8    c0,5.6,4.8,10.4,10.4,10.4s10.4-4.8,10.4-10.4c0-7.2,2.8-14,7.6-18.8s11.6-7.6,18.8-7.6s14,2.8,18.8,7.6    c4.8,4.8,7.6,11.6,7.6,18.8c0,5.6,4.8,10.4,10.4,10.4c5.6,0,10.4-4.8,10.4-10.4c0-7.2,2.8-14,7.6-18.8c4.8-4.8,11.6-7.6,18.8-7.6    c7.2,0,14,2.8,18.8,7.6s7.6,11.6,7.6,18.8v106c0,8.4,3.6,16.4,9.2,22c5.6,5.6,13.2,9.2,22,9.2c8.4,0,16.4-3.6,22-9.2    c5.6-5.6,9.2-13.2,9.2-22c0-5.6-4.8-10.4-10.4-10.4c-5.6,0-10.4,4.8-10.4,10.4c0,2.8-1.2,5.6-3.2,7.2c-2,2-4.4,3.2-7.2,3.2    c-2.8,0-5.6-1.2-7.2-3.2c-2-2-3.2-4.4-3.2-7.2v-106c0-7.2,2.8-14,7.6-18.8c4.8-4.8,11.6-7.6,18.8-7.6s14,2.8,18.8,7.6    s7.6,11.6,7.6,18.8c0,5.6,4.8,10.4,10.4,10.4c5.6,0,10.4-4.8,10.4-10.4c0-7.2,2.8-14,7.6-18.8c4.8-4.8,11.6-7.6,18.8-7.6    c6.8,0,12.8,2.4,17.6,6.8c4.8,4,8,10,8.8,16.8c0.8,5.2,5.2,9.2,10.4,9.2c5.6,0,10-4.8,10-10.4C313.6,121.2,295.6,82.8,267.2,55.2z    " fill="#d5d4d0"/>
	</g>
</g>
<g>
</g>
<g>
</g>
<g>
</g>
<g>
</g>
<g>
</g>
<g>
</g>
<g>
</g>
<g>
</g>
<g>
</g>
<g>
</g>
<g>
</g>
<g>
</g>
<g>
</g>
<g>
</g>
<g>
</g>
</svg>
